<svg width="178" height="60" viewBox="0 0 178 60" fill="none" xmlns="http://www.w3.org/2000/svg">
<path d="M21.93 32.9007C21.93 32.9007 19.5018 27.4689 23.2564 23.7143C27.0109 19.9598 33.913 28.0633 37.5173 24.4589C41.1217 20.8546 38.9006 15.9302 38.9006 15.9302M27.5699 38.5406C27.5699 38.5406 24.8609 32.828 28.6155 29.0735C32.3701 25.3189 39.808 33.9583 43.4124 30.354C47.0167 26.7496 44.5404 21.57 44.5404 21.57M33.1842 44.1549C33.1842 44.1549 30.756 38.7231 34.5105 34.9685C38.2651 31.2139 45.1671 39.3174 48.7715 35.7131C52.3759 32.1087 50.1547 27.1843 50.1547 27.1843" stroke="#1447E6" stroke-width="2" stroke-linecap="round" stroke-linejoin="round"/>
<path d="M74.836 37.86C72.988 37.86 71.368 37.452 69.976 36.636C68.584 35.796 67.504 34.608 66.736 33.072C65.968 31.536 65.584 29.7 65.584 27.564C65.584 25.38 65.992 23.52 66.808 21.984C67.624 20.424 68.74 19.224 70.156 18.384C71.596 17.544 73.24 17.124 75.088 17.124C76.072 17.124 76.936 17.208 77.68 17.376C78.424 17.544 79.108 17.76 79.732 18.024C80.428 18.36 80.86 18.732 81.028 19.14C81.22 19.548 81.256 20.064 81.136 20.688L80.92 21.588C80.824 21.852 80.704 21.984 80.56 21.984C80.44 21.984 80.26 21.924 80.02 21.804C79.276 21.396 78.532 21.084 77.788 20.868C77.068 20.628 76.192 20.508 75.16 20.508C73.384 20.508 71.944 21.096 70.84 22.272C69.736 23.424 69.184 25.188 69.184 27.564C69.184 29.868 69.748 31.596 70.876 32.748C72.004 33.9 73.468 34.476 75.268 34.476C76.54 34.476 77.632 34.224 78.544 33.72C79.456 33.216 80.14 32.7 80.596 32.172C80.716 32.028 80.812 31.944 80.884 31.92C80.98 31.872 81.076 31.848 81.172 31.848C81.532 31.848 81.712 32.136 81.712 32.712C81.712 33.12 81.592 33.612 81.352 34.188C81.112 34.764 80.716 35.34 80.164 35.916C79.636 36.468 78.928 36.936 78.04 37.32C77.176 37.68 76.108 37.86 74.836 37.86ZM89.5227 37.86C87.4107 37.86 85.7187 37.212 84.4467 35.916C83.1987 34.62 82.5747 32.892 82.5747 30.732C82.5747 28.596 83.1987 26.892 84.4467 25.62C85.6947 24.324 87.3747 23.676 89.4867 23.676C91.5987 23.676 93.2787 24.324 94.5267 25.62C95.7747 26.892 96.3987 28.596 96.3987 30.732C96.3987 32.868 95.7867 34.596 94.5627 35.916C93.3387 37.212 91.6587 37.86 89.5227 37.86ZM89.4867 34.584C90.3987 34.584 91.1907 34.296 91.8627 33.72C92.5347 33.12 92.8707 32.148 92.8707 30.804C92.8707 29.46 92.5347 28.476 91.8627 27.852C91.1907 27.228 90.3987 26.916 89.4867 26.916C88.5507 26.916 87.7467 27.228 87.0747 27.852C86.4267 28.452 86.1027 29.424 86.1027 30.768C86.1027 32.112 86.4267 33.084 87.0747 33.684C87.7467 34.284 88.5507 34.584 89.4867 34.584ZM101.597 25.944C102.005 25.176 102.497 24.66 103.073 24.396C103.649 24.108 104.429 23.964 105.413 23.964H105.809C106.049 23.964 106.169 24.108 106.169 24.396V26.844C106.169 27.132 106.049 27.276 105.809 27.276H104.873C103.553 27.276 102.689 27.612 102.281 28.284C101.897 28.932 101.705 29.892 101.705 31.164V37.104C101.705 37.368 101.585 37.5 101.345 37.5H98.6449C98.4289 37.5 98.3209 37.368 98.3209 37.104V24.396C98.3209 24.108 98.4289 23.964 98.6449 23.964H98.8249C100.385 23.964 101.309 24.624 101.597 25.944ZM111.111 35.916V42.864C111.111 43.128 110.991 43.26 110.751 43.26H108.051C107.835 43.26 107.727 43.128 107.727 42.864V24.396C107.727 24.108 107.835 23.964 108.051 23.964H108.231C108.951 23.964 109.527 24.12 109.959 24.432C110.415 24.744 110.727 25.176 110.895 25.728C111.255 25.176 111.795 24.696 112.515 24.288C113.235 23.88 114.111 23.676 115.143 23.676C116.535 23.676 117.699 23.988 118.635 24.612C119.571 25.212 120.279 26.04 120.759 27.096C121.263 28.152 121.515 29.352 121.515 30.696C121.515 31.992 121.275 33.18 120.795 34.26C120.339 35.34 119.655 36.204 118.743 36.852C117.831 37.5 116.703 37.824 115.359 37.824C114.471 37.824 113.655 37.668 112.911 37.356C112.191 37.02 111.591 36.54 111.111 35.916ZM114.603 34.584C115.035 34.584 115.503 34.476 116.007 34.26C116.535 34.044 116.991 33.66 117.375 33.108C117.759 32.532 117.951 31.728 117.951 30.696C117.951 29.688 117.759 28.92 117.375 28.392C117.015 27.84 116.571 27.456 116.043 27.24C115.515 27.024 115.011 26.916 114.531 26.916C114.099 26.916 113.619 27.012 113.091 27.204C112.563 27.372 112.095 27.732 111.687 28.284C111.303 28.812 111.111 29.616 111.111 30.696C111.111 31.752 111.303 32.568 111.687 33.144C112.095 33.696 112.575 34.08 113.127 34.296C113.679 34.488 114.171 34.584 114.603 34.584ZM126.743 37.824L121.919 24.396C121.895 24.3 121.895 24.204 121.919 24.108C121.967 24.012 122.039 23.964 122.135 23.964H122.891C123.875 23.964 124.595 24.168 125.051 24.576C125.531 24.984 125.975 25.752 126.383 26.88L128.615 33.576L131.639 24.432C131.783 24.12 131.975 23.964 132.215 23.964H134.879C134.999 23.964 135.071 24.012 135.095 24.108C135.119 24.204 135.119 24.3 135.095 24.396L130.415 37.536C130.007 38.712 129.563 39.756 129.083 40.668C128.627 41.604 128.063 42.336 127.391 42.864C126.719 43.392 125.867 43.656 124.835 43.656C124.067 43.656 123.419 43.488 122.891 43.152C122.363 42.84 121.967 42.432 121.703 41.928C121.439 41.424 121.307 40.932 121.307 40.452C121.307 40.284 121.343 40.128 121.415 39.984C121.487 39.84 121.595 39.768 121.739 39.768C121.787 39.768 121.835 39.78 121.883 39.804C121.955 39.852 122.015 39.9 122.063 39.948C122.711 40.428 123.359 40.668 124.007 40.668C124.679 40.668 125.207 40.452 125.591 40.02C125.975 39.612 126.359 38.88 126.743 37.824ZM142.476 37.86C140.364 37.86 138.672 37.212 137.4 35.916C136.152 34.62 135.528 32.892 135.528 30.732C135.528 28.596 136.152 26.892 137.4 25.62C138.648 24.324 140.328 23.676 142.44 23.676C144.552 23.676 146.232 24.324 147.48 25.62C148.728 26.892 149.352 28.596 149.352 30.732C149.352 32.868 148.74 34.596 147.516 35.916C146.292 37.212 144.612 37.86 142.476 37.86ZM142.44 34.584C143.352 34.584 144.144 34.296 144.816 33.72C145.488 33.12 145.824 32.148 145.824 30.804C145.824 29.46 145.488 28.476 144.816 27.852C144.144 27.228 143.352 26.916 142.44 26.916C141.504 26.916 140.7 27.228 140.028 27.852C139.38 28.452 139.056 29.424 139.056 30.768C139.056 32.112 139.38 33.084 140.028 33.684C140.7 34.284 141.504 34.584 142.44 34.584ZM154.55 25.944C154.958 25.176 155.45 24.66 156.026 24.396C156.602 24.108 157.382 23.964 158.366 23.964H158.762C159.002 23.964 159.122 24.108 159.122 24.396V26.844C159.122 27.132 159.002 27.276 158.762 27.276H157.826C156.506 27.276 155.642 27.612 155.234 28.284C154.85 28.932 154.658 29.892 154.658 31.164V37.104C154.658 37.368 154.538 37.5 154.298 37.5H151.598C151.382 37.5 151.274 37.368 151.274 37.104V24.396C151.274 24.108 151.382 23.964 151.598 23.964H151.778C153.338 23.964 154.262 24.624 154.55 25.944ZM161.917 33.468C162.517 33.468 163.033 33.696 163.465 34.152C163.897 34.584 164.113 35.112 164.113 35.736C164.113 36.336 163.897 36.864 163.465 37.32C163.033 37.752 162.517 37.968 161.917 37.968C161.317 37.968 160.801 37.752 160.369 37.32C159.937 36.864 159.721 36.336 159.721 35.736C159.721 35.112 159.937 34.584 160.369 34.152C160.801 33.696 161.317 33.468 161.917 33.468Z" fill="#1447E6"/>
</svg>
