<svg width="48" height="48" viewBox="0 0 48 48" fill="none" xmlns="http://www.w3.org/2000/svg">
<path d="M9.93002 26.9006C9.93002 26.9006 7.50181 21.4688 11.2564 17.7142C15.0109 13.9596 21.913 22.0632 25.5173 18.4588C29.1217 14.8544 26.9006 9.93004 26.9006 9.93004M15.5699 32.5404C15.5699 32.5404 12.8609 26.8279 16.6155 23.0733C20.3701 19.3188 27.808 27.9582 31.4124 24.3538C35.0167 20.7495 32.5404 15.5699 32.5404 15.5699M21.1842 38.1548C21.1842 38.1548 18.756 32.7229 22.5105 28.9684C26.2651 25.2138 33.1671 33.3173 36.7715 29.713C40.3759 26.1086 38.1547 21.1842 38.1547 21.1842" stroke="white" stroke-width="2" stroke-linecap="round" stroke-linejoin="round"/>
</svg>
