<svg width="24" height="24" viewBox="0 0 24 24" fill="none" xmlns="http://www.w3.org/2000/svg">
<g clip-path="url(#clip0_410_1251)">
<path fill-rule="evenodd" clip-rule="evenodd" d="M14.25 21.75L5.25 18V6.00002L14.25 2.25002V21.75ZM3.9225 19.884C3.64927 19.77 3.41588 19.5777 3.25172 19.3314C3.08756 19.085 2.99998 18.7956 3 18.4995V5.50052C2.99998 5.20446 3.08756 4.91502 3.25172 4.66865C3.41588 4.42228 3.64927 4.23 3.9225 4.11602L13.3845 0.172515C13.7265 0.0300053 14.0983 -0.0258574 14.4671 0.00988733C14.8358 0.0456321 15.1901 0.171878 15.4983 0.377416C15.8065 0.582953 16.0592 0.861422 16.234 1.1881C16.4087 1.51477 16.5001 1.87954 16.5 2.25002V3.00002H18.375C19.824 3.00002 21 4.17452 21 5.62502V18.375C21 19.0712 20.7234 19.7389 20.2312 20.2312C19.7389 20.7235 19.0712 21 18.375 21H16.5V21.75C16.5001 22.1205 16.4087 22.4853 16.234 22.8119C16.0592 23.1386 15.8065 23.4171 15.4983 23.6226C15.1901 23.8282 14.8358 23.9544 14.4671 23.9901C14.0983 24.0259 13.7265 23.97 13.3845 23.8275L3.9225 19.884ZM16.5 18.75H18.375C18.4745 18.75 18.5698 18.7105 18.6402 18.6402C18.7105 18.5699 18.75 18.4745 18.75 18.375V5.62502C18.75 5.52556 18.7105 5.43018 18.6402 5.35985C18.5698 5.28952 18.4745 5.25002 18.375 5.25002H16.5V18.75Z" fill="#F1F1F1"/>
</g>
<defs>
<clipPath id="clip0_410_1251">
<rect width="24" height="24" fill="white"/>
</clipPath>
</defs>
</svg>
