<svg width="24" height="24" viewBox="0 0 24 24" fill="none" xmlns="http://www.w3.org/2000/svg">
<path d="M12 12C13.0609 12 14.0783 11.5786 14.8284 10.8284C15.5786 10.0783 16 9.06087 16 8C16 6.93913 15.5786 5.92172 14.8284 5.17157C14.0783 4.42143 13.0609 4 12 4C10.9391 4 9.92172 4.42143 9.17157 5.17157C8.42143 5.92172 8 6.93913 8 8C8 9.06087 8.42143 10.0783 9.17157 10.8284C9.92172 11.5786 10.9391 12 12 12Z" stroke="#F1F1F1" stroke-width="1.5" stroke-linecap="round" stroke-linejoin="round"/>
<path d="M22.0001 17.28C22 17.8817 21.7621 18.459 21.3381 18.886C20.3621 19.87 19.4151 20.896 18.4021 21.844C18.289 21.9473 18.1404 22.0032 17.9872 22C17.834 21.9969 17.6879 21.9349 17.5791 21.827L14.6611 18.887C14.2367 18.4599 13.9985 17.8822 13.9985 17.28C13.9985 16.6779 14.2367 16.1002 14.6611 15.673C14.8728 15.4596 15.1246 15.2903 15.4021 15.1747C15.6795 15.0592 15.9771 14.9997 16.2776 14.9997C16.5782 14.9997 16.8758 15.0592 17.1532 15.1747C17.4307 15.2903 17.6825 15.4596 17.8941 15.673L18.0001 15.78L18.1061 15.673C18.424 15.3524 18.8301 15.1335 19.2727 15.0442C19.7153 14.9548 20.1744 14.9991 20.5918 15.1713C21.0091 15.3436 21.3659 15.636 21.6167 16.0115C21.8674 16.387 22.0009 16.8285 22.0001 17.28Z" stroke="#F1F1F1" stroke-width="1.5" stroke-linejoin="round"/>
<path d="M5 20V19C4.99976 17.819 5.29833 16.6571 5.86794 15.6225C6.43754 14.5879 7.25965 13.7142 8.25773 13.0828C9.25582 12.4515 10.3974 12.0829 11.5763 12.0114C12.7551 11.9399 13.9329 12.1678 15 12.674" stroke="#F1F1F1" stroke-width="1.5" stroke-linecap="round" stroke-linejoin="round"/>
</svg>
