<svg width="32" height="32" viewBox="0 0 32 32" fill="none" xmlns="http://www.w3.org/2000/svg">
<path d="M1.93002 18.9006C1.93002 18.9006 -0.498192 13.4688 3.25637 9.71421C7.01093 5.95964 13.913 14.0632 17.5173 10.4588C21.1217 6.85444 18.9006 1.93004 18.9006 1.93004M7.56986 24.5404C7.56986 24.5404 4.86093 18.8279 8.61549 15.0733C12.3701 11.3188 19.808 19.9582 23.4124 16.3538C27.0167 12.7495 24.5404 7.56988 24.5404 7.56988M13.1842 30.1548C13.1842 30.1548 10.756 24.7229 14.5105 20.9684C18.2651 17.2138 25.1671 25.3173 28.7715 21.713C32.3759 18.1086 30.1547 13.1842 30.1547 13.1842" stroke="#1447E6" stroke-width="2" stroke-linecap="round" stroke-linejoin="round"/>
</svg>
