<svg width="135" height="25" viewBox="0 0 135 25" fill="none" xmlns="http://www.w3.org/2000/svg">
<path d="M10.42 2.904C10.372 2.376 10.348 2.016 10.348 1.824C10.348 1.632 10.384 1.32 10.456 0.887999C11.032 0.911999 12.028 0.923999 13.444 0.923999C14.884 0.923999 15.868 0.911999 16.396 0.887999C16.468 1.248 16.504 1.524 16.504 1.716C16.504 1.884 16.48 2.28 16.432 2.904L15.1 3.012L8.08 11.328C10.504 15.024 12.112 17.436 12.904 18.564C13.696 19.692 14.512 20.748 15.352 21.732L17.044 21.84C17.092 22.224 17.116 22.584 17.116 22.92C17.116 23.256 17.08 23.592 17.008 23.928L12.724 24.108C12.556 23.316 11.056 20.832 8.224 16.656C7.024 14.88 6.364 13.884 6.244 13.668L4.696 15.648C4.744 18.096 4.84 20.184 4.984 21.912L6.28 22.02C6.328 22.548 6.352 22.92 6.352 23.136C6.352 23.328 6.316 23.628 6.244 24.036C5.572 24.012 4.588 24 3.292 24C1.996 24 1.048 24.012 0.448 24.036C0.376 23.676 0.34 23.34 0.34 23.028C0.34 22.692 0.364 22.356 0.412 22.02L1.672 21.912C1.864 19.272 1.96 15.948 1.96 11.94C1.96 7.908 1.852 4.92 1.636 2.976L0.412 2.868C0.364 2.34 0.34 1.98 0.34 1.788C0.34 1.596 0.376 1.284 0.448 0.852C1.096 0.875999 2.068 0.887999 3.364 0.887999C4.684 0.887999 5.644 0.875999 6.244 0.852C6.316 1.212 6.352 1.488 6.352 1.68C6.352 1.848 6.328 2.244 6.28 2.868L4.912 2.976C4.744 5.088 4.66 8.268 4.66 12.516C8.476 7.644 10.84 4.476 11.752 3.012L10.42 2.904ZM26.4322 2.976C26.2642 4.92 26.1802 7.932 26.1802 12.012C26.1802 16.092 26.2882 19.392 26.5042 21.912L27.8002 22.02C27.8482 22.404 27.8722 22.74 27.8722 23.028C27.8722 23.292 27.8362 23.628 27.7642 24.036C26.9242 24.012 25.9522 24 24.8482 24C23.7442 24 22.7842 24.012 21.9682 24.036C21.8962 23.676 21.8602 23.364 21.8602 23.1C21.8602 22.812 21.8842 22.452 21.9322 22.02L23.1922 21.912C23.3842 19.32 23.4802 16.02 23.4802 12.012C23.4802 7.98 23.3722 4.968 23.1562 2.976L21.9322 2.868C21.8842 2.484 21.8602 2.16 21.8602 1.896C21.8602 1.608 21.8962 1.26 21.9682 0.852C22.8082 0.875999 23.7802 0.887999 24.8842 0.887999C25.9882 0.887999 26.9482 0.875999 27.7642 0.852C27.8362 1.212 27.8722 1.536 27.8722 1.824C27.8722 2.088 27.8482 2.436 27.8002 2.868L26.4322 2.976ZM41.5499 11.436C42.2459 12.084 43.1219 12.408 44.1779 12.408C45.2579 12.408 46.1339 11.964 46.8059 11.076C47.5019 10.164 47.8499 8.964 47.8499 7.476C47.8499 4.14 46.2659 2.472 43.0979 2.472C42.0179 2.472 40.8899 2.712 39.7139 3.192C39.5459 5.28 39.4619 8.244 39.4619 12.084C39.4619 15.924 39.5699 19.2 39.7859 21.912L41.1179 22.02C41.1659 22.548 41.1899 22.92 41.1899 23.136C41.1899 23.328 41.1539 23.628 41.0819 24.036C40.3859 24.012 39.3659 24 38.0219 24C36.6779 24 35.7539 24.012 35.2499 24.036C35.1779 23.676 35.1419 23.34 35.1419 23.028C35.1419 22.692 35.1659 22.356 35.2139 22.02L36.4739 21.912C36.6659 19.272 36.7619 15.96 36.7619 11.976C36.7619 7.992 36.6419 5.052 36.4019 3.156L35.0339 3.048C34.9619 2.76 34.9259 2.388 34.9259 1.932C34.9259 1.476 34.9379 1.176 34.9619 1.032C36.5699 0.983999 37.9859 0.875999 39.2099 0.707999C40.4339 0.515999 41.7419 0.419999 43.1339 0.419999C48.3659 0.419999 50.9819 2.772 50.9819 7.476C50.9819 9.372 50.5139 10.932 49.5779 12.156C48.6419 13.38 47.3339 14.148 45.6539 14.46C48.0299 18.228 49.6739 20.652 50.5859 21.732L52.2779 21.84C52.3259 22.224 52.3499 22.584 52.3499 22.92C52.3499 23.232 52.3139 23.568 52.2419 23.928C50.0579 24 48.5339 24.06 47.6699 24.108L47.5259 23.712C47.1179 22.704 46.6139 21.66 46.0139 20.58C45.4379 19.476 44.2139 17.46 42.3419 14.532C41.8379 14.508 41.3219 14.376 40.7939 14.136C40.7939 13.656 40.8659 13.14 41.0099 12.588C41.1779 12.012 41.3579 11.628 41.5499 11.436ZM68.1903 9.384C68.7183 9.336 69.0783 9.312 69.2703 9.312C69.4623 9.312 69.7743 9.348 70.2063 9.42C70.1823 10.164 70.1703 11.124 70.1703 12.3C70.1703 13.476 70.1823 14.244 70.2063 14.604C69.8463 14.676 69.4983 14.712 69.1623 14.712C68.8263 14.712 68.5023 14.688 68.1903 14.64L68.0823 13.38C66.7863 13.332 65.7183 13.308 64.8783 13.308C64.0383 13.308 62.9703 13.332 61.6743 13.38C61.6743 16.524 61.7583 19.152 61.9263 21.264C62.7663 21.336 63.9543 21.372 65.4902 21.372C67.0503 21.372 68.2743 21.312 69.1623 21.192L69.2703 18.744C69.6783 18.672 70.0503 18.636 70.3863 18.636C70.7463 18.636 71.0463 18.648 71.2863 18.672C71.3103 20.544 71.4183 22.32 71.6103 24L71.4303 24.18C70.2543 24.06 67.6743 24 63.6903 24C59.7303 24 57.6423 24.012 57.4263 24.036C57.3543 23.676 57.3183 23.34 57.3183 23.028C57.3183 22.692 57.3423 22.356 57.3903 22.02L58.6503 21.912C58.8663 18.192 58.9743 14.832 58.9743 11.832C58.9743 8.808 58.8303 5.892 58.5423 3.084L57.3183 2.976C57.2703 2.664 57.2463 2.34 57.2463 2.004C57.2463 1.668 57.2823 1.32 57.3543 0.959998C57.9543 0.983998 60.1503 0.995998 63.9423 0.995998C67.7343 0.995998 70.1703 0.887999 71.2503 0.672L71.4303 0.852C71.2383 2.964 71.1303 4.668 71.1063 5.964C70.8663 5.988 70.5663 6 70.2063 6C69.8463 6 69.4743 5.964 69.0903 5.892L68.9823 3.444C67.7583 3.372 66.4863 3.336 65.1663 3.336C63.8463 3.336 62.7543 3.372 61.8903 3.444C61.7463 4.956 61.6743 7.428 61.6743 10.86C62.0583 10.884 62.8383 10.896 64.0143 10.896C65.1903 10.896 66.5463 10.848 68.0823 10.752L68.1903 9.384ZM82.8462 2.976C82.6782 4.92 82.5942 7.932 82.5942 12.012C82.5942 16.092 82.7022 19.392 82.9182 21.912L84.2142 22.02C84.2622 22.404 84.2862 22.74 84.2862 23.028C84.2862 23.292 84.2502 23.628 84.1782 24.036C83.3382 24.012 82.3662 24 81.2622 24C80.1582 24 79.1982 24.012 78.3822 24.036C78.3102 23.676 78.2742 23.364 78.2742 23.1C78.2742 22.812 78.2982 22.452 78.3462 22.02L79.6062 21.912C79.7982 19.32 79.8942 16.02 79.8942 12.012C79.8942 7.98 79.7862 4.968 79.5702 2.976L78.3462 2.868C78.2982 2.484 78.2742 2.16 78.2742 1.896C78.2742 1.608 78.3102 1.26 78.3822 0.852C79.2222 0.875999 80.1942 0.887999 81.2982 0.887999C82.4022 0.887999 83.3622 0.875999 84.1782 0.852C84.2502 1.212 84.2862 1.536 84.2862 1.824C84.2862 2.088 84.2622 2.436 84.2142 2.868L82.8462 2.976ZM106.388 18.78C106.46 16.764 106.496 14.124 106.496 10.86C106.496 7.596 106.388 4.968 106.172 2.976L104.84 2.868C104.792 2.484 104.768 2.16 104.768 1.896C104.768 1.608 104.804 1.26 104.876 0.852C105.644 0.875999 106.52 0.887999 107.504 0.887999C108.512 0.887999 109.388 0.875999 110.132 0.852C110.204 1.212 110.24 1.536 110.24 1.824C110.24 2.088 110.216 2.436 110.168 2.868L108.908 2.976C108.74 4.92 108.656 8.58 108.656 13.956C108.656 19.308 108.86 22.632 109.268 23.928C108.548 24.168 108.02 24.288 107.684 24.288C107.372 24.288 106.808 24.264 105.992 24.216C105.824 23.472 105.116 22.128 103.868 20.184C102.62 18.216 101.06 15.876 99.188 13.164C97.34 10.452 96.008 8.424 95.192 7.08C95.168 8.112 95.156 10.212 95.156 13.38C95.156 16.548 95.264 19.392 95.48 21.912L96.812 22.02C96.86 22.404 96.884 22.74 96.884 23.028C96.884 23.292 96.848 23.628 96.776 24.036C96.008 24.012 95.12 24 94.112 24C93.104 24 92.228 24.012 91.484 24.036C91.412 23.676 91.376 23.364 91.376 23.1C91.376 22.812 91.4 22.452 91.448 22.02L92.708 21.912C92.9 19.32 92.996 16.044 92.996 12.084C92.996 8.1 92.888 5.124 92.672 3.156L91.268 3.048C91.196 2.712 91.16 2.34 91.16 1.932C91.16 1.524 91.172 1.224 91.196 1.032C93.236 0.983999 94.748 0.923999 95.732 0.852C96.188 2.58 97.484 5.172 99.62 8.628C101.756 12.084 104.012 15.468 106.388 18.78ZM119.958 3.048C119.886 2.76 119.85 2.388 119.85 1.932C119.85 1.476 119.862 1.176 119.886 1.032C121.998 0.767999 123.57 0.635998 124.602 0.635998C125.634 0.635998 126.51 0.755998 127.23 0.995998C127.806 5.508 129.81 12.48 133.242 21.912L134.574 22.02C134.622 22.548 134.646 22.92 134.646 23.136C134.646 23.328 134.61 23.628 134.538 24.036C133.866 24.012 132.822 24 131.406 24C129.99 24 129.006 24.012 128.454 24.036C128.382 23.676 128.346 23.34 128.346 23.028C128.346 22.692 128.37 22.356 128.418 22.02L129.678 21.912C129.558 21.336 129.366 20.508 129.102 19.428C128.838 18.324 128.694 17.712 128.67 17.592C127.302 17.52 125.814 17.484 124.206 17.484C122.622 17.484 121.134 17.532 119.742 17.628L118.734 21.912L120.102 22.02C120.15 22.548 120.174 22.92 120.174 23.136C120.174 23.328 120.138 23.628 120.066 24.036C119.49 24.012 118.542 24 117.222 24C115.926 24 115.014 24.012 114.486 24.036C114.414 23.676 114.378 23.34 114.378 23.028C114.378 22.692 114.402 22.356 114.45 22.02L115.71 21.912C118.59 14.016 120.486 7.764 121.398 3.156L119.958 3.048ZM120.39 15.108C121.206 15.132 122.43 15.144 124.062 15.144C125.694 15.144 127.014 15.108 128.022 15.036C126.894 10.764 125.706 6.816 124.458 3.192H124.242C122.826 6.624 121.542 10.596 120.39 15.108Z" fill="#4D78FD"/>
</svg>
