<svg width="154" height="60" viewBox="0 0 154 60" fill="none" xmlns="http://www.w3.org/2000/svg">
<path d="M10.0002 32.9709C10.0002 32.9709 7.50181 27.4689 11.2564 23.7143C15.0109 19.9598 22.047 28.1973 25.6513 24.5929C29.2557 20.9885 26.9708 16.0003 26.9708 16.0003M15.7408 38.7115C15.7408 38.7115 12.9566 32.9237 16.7112 29.1692C20.4658 25.4146 28.0473 34.1976 31.6516 30.5932C35.256 26.9888 32.7113 21.7409 32.7113 21.7409M21.4553 44.426C21.4553 44.426 18.9569 38.924 22.7115 35.1695C26.4661 31.4149 33.5021 39.6524 37.1064 36.048C40.7108 32.4437 38.4259 27.4555 38.4259 27.4555" stroke="white" stroke-width="2" stroke-linecap="round" stroke-linejoin="round"/>
<path d="M62.836 37.86C60.988 37.86 59.368 37.452 57.976 36.636C56.584 35.796 55.504 34.608 54.736 33.072C53.968 31.536 53.584 29.7 53.584 27.564C53.584 25.38 53.992 23.52 54.808 21.984C55.624 20.424 56.74 19.224 58.156 18.384C59.596 17.544 61.24 17.124 63.088 17.124C64.072 17.124 64.936 17.208 65.68 17.376C66.424 17.544 67.108 17.76 67.732 18.024C68.428 18.36 68.86 18.732 69.028 19.14C69.22 19.548 69.256 20.064 69.136 20.688L68.92 21.588C68.824 21.852 68.704 21.984 68.56 21.984C68.44 21.984 68.26 21.924 68.02 21.804C67.276 21.396 66.532 21.084 65.788 20.868C65.068 20.628 64.192 20.508 63.16 20.508C61.384 20.508 59.944 21.096 58.84 22.272C57.736 23.424 57.184 25.188 57.184 27.564C57.184 29.868 57.748 31.596 58.876 32.748C60.004 33.9 61.468 34.476 63.268 34.476C64.54 34.476 65.632 34.224 66.544 33.72C67.456 33.216 68.14 32.7 68.596 32.172C68.716 32.028 68.812 31.944 68.884 31.92C68.98 31.872 69.076 31.848 69.172 31.848C69.532 31.848 69.712 32.136 69.712 32.712C69.712 33.12 69.592 33.612 69.352 34.188C69.112 34.764 68.716 35.34 68.164 35.916C67.636 36.468 66.928 36.936 66.04 37.32C65.176 37.68 64.108 37.86 62.836 37.86ZM77.5227 37.86C75.4107 37.86 73.7187 37.212 72.4467 35.916C71.1987 34.62 70.5747 32.892 70.5747 30.732C70.5747 28.596 71.1987 26.892 72.4467 25.62C73.6947 24.324 75.3747 23.676 77.4867 23.676C79.5987 23.676 81.2787 24.324 82.5267 25.62C83.7747 26.892 84.3987 28.596 84.3987 30.732C84.3987 32.868 83.7867 34.596 82.5627 35.916C81.3387 37.212 79.6587 37.86 77.5227 37.86ZM77.4867 34.584C78.3987 34.584 79.1907 34.296 79.8627 33.72C80.5347 33.12 80.8707 32.148 80.8707 30.804C80.8707 29.46 80.5347 28.476 79.8627 27.852C79.1907 27.228 78.3987 26.916 77.4867 26.916C76.5507 26.916 75.7467 27.228 75.0747 27.852C74.4267 28.452 74.1027 29.424 74.1027 30.768C74.1027 32.112 74.4267 33.084 75.0747 33.684C75.7467 34.284 76.5507 34.584 77.4867 34.584ZM89.5969 25.944C90.0049 25.176 90.4969 24.66 91.0729 24.396C91.6489 24.108 92.4289 23.964 93.4129 23.964H93.8089C94.0489 23.964 94.1689 24.108 94.1689 24.396V26.844C94.1689 27.132 94.0489 27.276 93.8089 27.276H92.8729C91.5529 27.276 90.6889 27.612 90.2809 28.284C89.8969 28.932 89.7049 29.892 89.7049 31.164V37.104C89.7049 37.368 89.5849 37.5 89.3449 37.5H86.6449C86.4289 37.5 86.3209 37.368 86.3209 37.104V24.396C86.3209 24.108 86.4289 23.964 86.6449 23.964H86.8249C88.3849 23.964 89.3089 24.624 89.5969 25.944ZM99.1112 35.916V42.864C99.1112 43.128 98.9912 43.26 98.7512 43.26H96.0512C95.8352 43.26 95.7272 43.128 95.7272 42.864V24.396C95.7272 24.108 95.8352 23.964 96.0512 23.964H96.2312C96.9512 23.964 97.5272 24.12 97.9592 24.432C98.4152 24.744 98.7272 25.176 98.8952 25.728C99.2552 25.176 99.7952 24.696 100.515 24.288C101.235 23.88 102.111 23.676 103.143 23.676C104.535 23.676 105.699 23.988 106.635 24.612C107.571 25.212 108.279 26.04 108.759 27.096C109.263 28.152 109.515 29.352 109.515 30.696C109.515 31.992 109.275 33.18 108.795 34.26C108.339 35.34 107.655 36.204 106.743 36.852C105.831 37.5 104.703 37.824 103.359 37.824C102.471 37.824 101.655 37.668 100.911 37.356C100.191 37.02 99.5912 36.54 99.1112 35.916ZM102.603 34.584C103.035 34.584 103.503 34.476 104.007 34.26C104.535 34.044 104.991 33.66 105.375 33.108C105.759 32.532 105.951 31.728 105.951 30.696C105.951 29.688 105.759 28.92 105.375 28.392C105.015 27.84 104.571 27.456 104.043 27.24C103.515 27.024 103.011 26.916 102.531 26.916C102.099 26.916 101.619 27.012 101.091 27.204C100.563 27.372 100.095 27.732 99.6872 28.284C99.3032 28.812 99.1112 29.616 99.1112 30.696C99.1112 31.752 99.3032 32.568 99.6872 33.144C100.095 33.696 100.575 34.08 101.127 34.296C101.679 34.488 102.171 34.584 102.603 34.584ZM114.743 37.824L109.919 24.396C109.895 24.3 109.895 24.204 109.919 24.108C109.967 24.012 110.039 23.964 110.135 23.964H110.891C111.875 23.964 112.595 24.168 113.051 24.576C113.531 24.984 113.975 25.752 114.383 26.88L116.615 33.576L119.639 24.432C119.783 24.12 119.975 23.964 120.215 23.964H122.879C122.999 23.964 123.071 24.012 123.095 24.108C123.119 24.204 123.119 24.3 123.095 24.396L118.415 37.536C118.007 38.712 117.563 39.756 117.083 40.668C116.627 41.604 116.063 42.336 115.391 42.864C114.719 43.392 113.867 43.656 112.835 43.656C112.067 43.656 111.419 43.488 110.891 43.152C110.363 42.84 109.967 42.432 109.703 41.928C109.439 41.424 109.307 40.932 109.307 40.452C109.307 40.284 109.343 40.128 109.415 39.984C109.487 39.84 109.595 39.768 109.739 39.768C109.787 39.768 109.835 39.78 109.883 39.804C109.955 39.852 110.015 39.9 110.063 39.948C110.711 40.428 111.359 40.668 112.007 40.668C112.679 40.668 113.207 40.452 113.591 40.02C113.975 39.612 114.359 38.88 114.743 37.824ZM130.476 37.86C128.364 37.86 126.672 37.212 125.4 35.916C124.152 34.62 123.528 32.892 123.528 30.732C123.528 28.596 124.152 26.892 125.4 25.62C126.648 24.324 128.328 23.676 130.44 23.676C132.552 23.676 134.232 24.324 135.48 25.62C136.728 26.892 137.352 28.596 137.352 30.732C137.352 32.868 136.74 34.596 135.516 35.916C134.292 37.212 132.612 37.86 130.476 37.86ZM130.44 34.584C131.352 34.584 132.144 34.296 132.816 33.72C133.488 33.12 133.824 32.148 133.824 30.804C133.824 29.46 133.488 28.476 132.816 27.852C132.144 27.228 131.352 26.916 130.44 26.916C129.504 26.916 128.7 27.228 128.028 27.852C127.38 28.452 127.056 29.424 127.056 30.768C127.056 32.112 127.38 33.084 128.028 33.684C128.7 34.284 129.504 34.584 130.44 34.584ZM142.55 25.944C142.958 25.176 143.45 24.66 144.026 24.396C144.602 24.108 145.382 23.964 146.366 23.964H146.762C147.002 23.964 147.122 24.108 147.122 24.396V26.844C147.122 27.132 147.002 27.276 146.762 27.276H145.826C144.506 27.276 143.642 27.612 143.234 28.284C142.85 28.932 142.658 29.892 142.658 31.164V37.104C142.658 37.368 142.538 37.5 142.298 37.5H139.598C139.382 37.5 139.274 37.368 139.274 37.104V24.396C139.274 24.108 139.382 23.964 139.598 23.964H139.778C141.338 23.964 142.262 24.624 142.55 25.944ZM149.917 33.468C150.517 33.468 151.033 33.696 151.465 34.152C151.897 34.584 152.113 35.112 152.113 35.736C152.113 36.336 151.897 36.864 151.465 37.32C151.033 37.752 150.517 37.968 149.917 37.968C149.317 37.968 148.801 37.752 148.369 37.32C147.937 36.864 147.721 36.336 147.721 35.736C147.721 35.112 147.937 34.584 148.369 34.152C148.801 33.696 149.317 33.468 149.917 33.468Z" fill="white"/>
</svg>
