<svg width="122" height="27" viewBox="0 0 122 27" fill="none" xmlns="http://www.w3.org/2000/svg">
<path d="M11.808 0.619998L18.792 26H15.156L13.464 19.34H5.472L3.708 26H0.36L7.38 1.052L11.808 0.619998ZM9.432 3.86L6.3 16.388H12.744L9.684 3.86H9.432ZM21.4705 0.799998H29.6065C32.1745 0.799998 33.9385 1.496 34.8985 2.888C35.7625 4.16 36.1945 5.708 36.1945 7.532C36.1945 9.356 35.7145 10.916 34.7545 12.212C33.7945 13.484 32.4985 14.396 30.8665 14.948L37.7425 26H33.6745L27.4825 15.524H24.9265V26H21.4705V0.799998ZM24.9265 3.464V12.644H27.6985C29.2825 12.644 30.4945 12.236 31.3345 11.42C32.1745 10.58 32.5945 9.428 32.5945 7.964C32.5945 6.476 32.2345 5.36 31.5145 4.616C30.8185 3.848 29.6545 3.464 28.0225 3.464H24.9265ZM48.3384 0.368C51.0024 0.368 52.8744 0.98 53.9544 2.204C55.0344 3.428 55.5744 5.252 55.5744 7.676L51.9024 8.036C51.9024 6.332 51.5784 5.144 50.9304 4.472C50.3064 3.8 49.4064 3.464 48.2304 3.464C47.0784 3.464 46.1424 3.644 45.4224 4.004C44.7264 4.34 44.1744 4.796 43.7664 5.372C43.3584 5.948 43.0344 6.704 42.7944 7.64C42.4104 9.176 42.2184 11.444 42.2184 14.444C42.2184 17.42 42.7344 19.652 43.7664 21.14C44.8224 22.604 46.5144 23.336 48.8424 23.336C50.1624 23.336 51.3864 23.12 52.5144 22.688V16.964H47.6544L48.0144 13.94H55.7544V24.74C53.3064 25.868 50.8104 26.432 48.2664 26.432C44.5944 26.432 42.0384 25.316 40.5984 23.084C39.4224 21.236 38.7504 18.824 38.5824 15.848C38.5584 15.104 38.5464 14.228 38.5464 13.22C38.5464 9.38 39.3864 6.284 41.0664 3.932C42.7704 1.556 45.1944 0.368 48.3384 0.368ZM72.6307 5.336C72.1987 4.784 71.5987 4.34 70.8307 4.004C70.0627 3.644 69.1267 3.464 68.0227 3.464C66.9427 3.464 66.0187 3.74 65.2507 4.292C64.5067 4.82 63.9547 5.6 63.5947 6.632C62.9947 8.384 62.6947 10.736 62.6947 13.688C62.6947 17.528 63.2347 20.12 64.3147 21.464C65.2987 22.712 66.8107 23.336 68.8507 23.336C69.8107 23.336 70.6267 23.144 71.2987 22.76C71.9947 22.352 72.5227 21.86 72.8827 21.284C73.2667 20.684 73.5667 19.904 73.7827 18.944C74.1187 17.456 74.2867 15.812 74.2867 14.012C74.2867 12.212 74.2507 10.892 74.1787 10.052C74.1067 9.188 73.9387 8.324 73.6747 7.46C73.4347 6.572 73.0867 5.864 72.6307 5.336ZM68.8867 0.368C74.9347 0.368 77.9587 4.532 77.9587 12.86C77.9587 17.156 77.1307 20.492 75.4747 22.868C73.8187 25.244 71.3587 26.432 68.0947 26.432C62.0467 26.432 59.0227 22.268 59.0227 13.94C59.0227 9.644 59.8507 6.308 61.5067 3.932C63.1627 1.556 65.6227 0.368 68.8867 0.368ZM98.1978 0.799998V26H94.5618L86.2098 8.936L85.0218 5.624L84.8418 5.732L85.4538 9.44V26H81.9978V0.799998H85.6698L93.9858 18.296L95.2098 21.716L95.3898 21.608L94.7418 17.36V0.799998H98.1978ZM115.842 5.336C115.41 4.784 114.81 4.34 114.042 4.004C113.274 3.644 112.338 3.464 111.234 3.464C110.154 3.464 109.23 3.74 108.462 4.292C107.718 4.82 107.166 5.6 106.806 6.632C106.206 8.384 105.906 10.736 105.906 13.688C105.906 17.528 106.446 20.12 107.526 21.464C108.51 22.712 110.022 23.336 112.062 23.336C113.022 23.336 113.838 23.144 114.51 22.76C115.206 22.352 115.734 21.86 116.094 21.284C116.478 20.684 116.778 19.904 116.994 18.944C117.33 17.456 117.498 15.812 117.498 14.012C117.498 12.212 117.462 10.892 117.39 10.052C117.318 9.188 117.15 8.324 116.886 7.46C116.646 6.572 116.298 5.864 115.842 5.336ZM112.098 0.368C118.146 0.368 121.17 4.532 121.17 12.86C121.17 17.156 120.342 20.492 118.686 22.868C117.03 25.244 114.57 26.432 111.306 26.432C105.258 26.432 102.234 22.268 102.234 13.94C102.234 9.644 103.062 6.308 104.718 3.932C106.374 1.556 108.834 0.368 112.098 0.368Z" fill="#4D78FD"/>
</svg>
