<svg width="144" height="30" viewBox="0 0 144 30" fill="none" xmlns="http://www.w3.org/2000/svg">
<path d="M9.764 29.468C7.868 29.468 6.164 29.108 4.652 28.388C3.14 27.644 1.868 26.696 0.836 25.544L2.168 24.032C3.128 25.088 4.268 25.94 5.588 26.588C6.908 27.212 8.3 27.524 9.764 27.524C11.708 27.524 13.244 27.056 14.372 26.12C15.5 25.184 16.064 23.972 16.064 22.484C16.064 21.428 15.848 20.588 15.416 19.964C15.008 19.316 14.456 18.788 13.76 18.38C13.064 17.948 12.284 17.552 11.42 17.192L7.496 15.428C6.728 15.092 5.924 14.66 5.084 14.132C4.268 13.604 3.572 12.92 2.996 12.08C2.444 11.216 2.168 10.148 2.168 8.876C2.168 7.556 2.504 6.416 3.176 5.456C3.848 4.472 4.772 3.704 5.948 3.152C7.124 2.576 8.456 2.288 9.944 2.288C11.528 2.288 12.944 2.6 14.192 3.224C15.464 3.824 16.508 4.568 17.324 5.456L16.136 6.86C15.368 6.068 14.468 5.432 13.436 4.952C12.404 4.472 11.24 4.232 9.944 4.232C8.264 4.232 6.908 4.64 5.876 5.456C4.868 6.248 4.364 7.328 4.364 8.696C4.364 9.68 4.604 10.484 5.084 11.108C5.564 11.732 6.152 12.236 6.848 12.62C7.544 13.004 8.216 13.34 8.864 13.628L12.752 15.356C13.76 15.788 14.672 16.292 15.488 16.868C16.328 17.444 17 18.164 17.504 19.028C18.008 19.892 18.26 20.996 18.26 22.34C18.26 23.684 17.912 24.896 17.216 25.976C16.52 27.056 15.536 27.908 14.264 28.532C12.992 29.156 11.492 29.468 9.764 29.468ZM22.4828 29V0.379999H24.5708V8.552L24.5348 12.764C25.4948 11.78 26.4908 10.964 27.5228 10.316C28.5788 9.644 29.7668 9.308 31.0868 9.308C33.0788 9.308 34.5428 9.932 35.4788 11.18C36.4388 12.404 36.9188 14.252 36.9188 16.724V29H34.8308V17.012C34.8308 15.02 34.4948 13.556 33.8228 12.62C33.1748 11.66 32.0948 11.18 30.5828 11.18C29.4788 11.18 28.4828 11.468 27.5948 12.044C26.7068 12.62 25.6988 13.484 24.5708 14.636V29H22.4828ZM42.6469 29V9.776H44.7349V29H42.6469ZM43.7269 5.312C43.2229 5.312 42.8149 5.156 42.5029 4.844C42.2149 4.508 42.0709 4.076 42.0709 3.548C42.0709 3.044 42.2149 2.636 42.5029 2.324C42.8149 2.012 43.2229 1.856 43.7269 1.856C44.2069 1.856 44.6029 2.012 44.9149 2.324C45.2269 2.636 45.3829 3.044 45.3829 3.548C45.3829 4.076 45.2269 4.508 44.9149 4.844C44.6029 5.156 44.2069 5.312 43.7269 5.312ZM55.141 29.468C54.109 29.468 53.173 29.276 52.333 28.892C51.493 28.484 50.821 27.896 50.317 27.128C49.813 26.336 49.561 25.34 49.561 24.14C49.561 22.028 50.533 20.42 52.477 19.316C54.445 18.188 57.541 17.396 61.765 16.94C61.813 15.98 61.717 15.068 61.477 14.204C61.261 13.316 60.829 12.584 60.181 12.008C59.557 11.432 58.633 11.144 57.409 11.144C56.161 11.144 55.009 11.396 53.953 11.9C52.921 12.38 52.057 12.86 51.361 13.34L50.461 11.792C50.941 11.456 51.541 11.096 52.261 10.712C53.005 10.328 53.833 10.004 54.745 9.74C55.657 9.452 56.629 9.308 57.661 9.308C59.197 9.308 60.421 9.644 61.333 10.316C62.245 10.964 62.893 11.852 63.277 12.98C63.685 14.108 63.889 15.392 63.889 16.832V29H62.161L61.945 26.552H61.801C60.865 27.344 59.833 28.028 58.705 28.604C57.577 29.18 56.389 29.468 55.141 29.468ZM55.573 27.668C56.629 27.668 57.649 27.428 58.633 26.948C59.617 26.444 60.661 25.7 61.765 24.716V18.488C59.269 18.752 57.277 19.136 55.789 19.64C54.301 20.144 53.233 20.756 52.585 21.476C51.961 22.196 51.649 23.048 51.649 24.032C51.649 25.376 52.033 26.324 52.801 26.876C53.569 27.404 54.493 27.668 55.573 27.668ZM72.5325 29L66.9165 9.776H69.1485L72.4965 21.908C72.7125 22.82 72.9165 23.696 73.1085 24.536C73.3245 25.376 73.5285 26.24 73.7205 27.128H73.9005C74.1405 26.24 74.3685 25.376 74.5845 24.536C74.8005 23.696 75.0285 22.82 75.2685 21.908L78.6525 9.776H80.9925L84.4125 21.908C84.6525 22.82 84.8805 23.696 85.0965 24.536C85.3365 25.376 85.5765 26.24 85.8165 27.128H85.9605C86.1765 26.24 86.3925 25.376 86.6085 24.536C86.8245 23.696 87.0525 22.82 87.2925 21.908L90.5325 9.776H92.6205L87.2205 29H84.5205L81.2805 17.444C81.0165 16.532 80.7765 15.62 80.5605 14.708C80.3445 13.796 80.1045 12.872 79.8405 11.936H79.6605C79.4445 12.872 79.2165 13.808 78.9765 14.744C78.7605 15.656 78.5085 16.58 78.2205 17.516L75.0525 29H72.5325ZM100.004 29.468C98.9723 29.468 98.0363 29.276 97.1963 28.892C96.3563 28.484 95.6843 27.896 95.1803 27.128C94.6763 26.336 94.4243 25.34 94.4243 24.14C94.4243 22.028 95.3963 20.42 97.3403 19.316C99.3083 18.188 102.404 17.396 106.628 16.94C106.676 15.98 106.58 15.068 106.34 14.204C106.124 13.316 105.692 12.584 105.044 12.008C104.42 11.432 103.496 11.144 102.272 11.144C101.024 11.144 99.8723 11.396 98.8163 11.9C97.7843 12.38 96.9203 12.86 96.2243 13.34L95.3243 11.792C95.8043 11.456 96.4043 11.096 97.1243 10.712C97.8683 10.328 98.6963 10.004 99.6083 9.74C100.52 9.452 101.492 9.308 102.524 9.308C104.06 9.308 105.284 9.644 106.196 10.316C107.108 10.964 107.756 11.852 108.14 12.98C108.548 14.108 108.752 15.392 108.752 16.832V29H107.024L106.808 26.552H106.664C105.728 27.344 104.696 28.028 103.568 28.604C102.44 29.18 101.252 29.468 100.004 29.468ZM100.436 27.668C101.492 27.668 102.512 27.428 103.496 26.948C104.48 26.444 105.524 25.7 106.628 24.716V18.488C104.132 18.752 102.14 19.136 100.652 19.64C99.1643 20.144 98.0963 20.756 97.4482 21.476C96.8243 22.196 96.5123 23.048 96.5123 24.032C96.5123 25.376 96.8963 26.324 97.6643 26.876C98.4323 27.404 99.3563 27.668 100.436 27.668ZM119.16 29.468C117.768 29.468 116.46 29.216 115.236 28.712C114.012 28.184 112.968 27.56 112.104 26.84L113.256 25.328C114.072 26 114.948 26.564 115.884 27.02C116.82 27.476 117.936 27.704 119.232 27.704C120.696 27.704 121.8 27.356 122.544 26.66C123.288 25.94 123.66 25.088 123.66 24.104C123.66 23.336 123.42 22.7 122.94 22.196C122.484 21.668 121.896 21.236 121.176 20.9C120.48 20.564 119.76 20.264 119.016 20C118.08 19.64 117.156 19.256 116.244 18.848C115.356 18.416 114.612 17.852 114.012 17.156C113.436 16.46 113.148 15.572 113.148 14.492C113.148 13.532 113.388 12.668 113.868 11.9C114.372 11.108 115.092 10.484 116.028 10.028C116.964 9.548 118.104 9.308 119.448 9.308C120.504 9.308 121.524 9.512 122.508 9.92C123.492 10.304 124.332 10.784 125.028 11.36L123.948 12.8C123.3 12.296 122.616 11.888 121.896 11.576C121.176 11.24 120.348 11.072 119.412 11.072C117.996 11.072 116.94 11.408 116.244 12.08C115.572 12.752 115.236 13.52 115.236 14.384C115.236 15.08 115.44 15.656 115.848 16.112C116.256 16.568 116.796 16.952 117.468 17.264C118.14 17.552 118.836 17.84 119.556 18.128C120.324 18.416 121.068 18.716 121.788 19.028C122.508 19.316 123.156 19.676 123.732 20.108C124.332 20.516 124.812 21.032 125.172 21.656C125.532 22.28 125.712 23.06 125.712 23.996C125.712 24.98 125.46 25.892 124.956 26.732C124.452 27.572 123.72 28.244 122.76 28.748C121.8 29.228 120.6 29.468 119.16 29.468ZM137.101 29.468C135.445 29.468 133.933 29.072 132.565 28.28C131.221 27.464 130.141 26.312 129.325 24.824C128.533 23.336 128.137 21.536 128.137 19.424C128.137 17.864 128.365 16.46 128.821 15.212C129.277 13.964 129.901 12.908 130.693 12.044C131.509 11.156 132.421 10.484 133.429 10.028C134.437 9.548 135.481 9.308 136.561 9.308C138.097 9.308 139.417 9.668 140.521 10.388C141.625 11.084 142.477 12.104 143.077 13.448C143.677 14.768 143.977 16.364 143.977 18.236C143.977 18.5 143.965 18.764 143.941 19.028C143.941 19.268 143.917 19.52 143.869 19.784H130.261C130.309 21.32 130.621 22.688 131.197 23.888C131.797 25.064 132.613 26 133.645 26.696C134.677 27.368 135.889 27.704 137.281 27.704C138.313 27.704 139.237 27.56 140.053 27.272C140.869 26.96 141.637 26.552 142.357 26.048L143.185 27.596C142.417 28.076 141.553 28.508 140.593 28.892C139.633 29.276 138.469 29.468 137.101 29.468ZM130.261 18.092H142.033C142.033 15.788 141.541 14.048 140.557 12.872C139.573 11.696 138.241 11.108 136.561 11.108C135.529 11.108 134.557 11.384 133.645 11.936C132.733 12.488 131.977 13.28 131.377 14.312C130.777 15.344 130.405 16.604 130.261 18.092Z" fill="#4D78FD"/>
</svg>
