<svg width="112" height="30" viewBox="0 0 112 30" fill="none" xmlns="http://www.w3.org/2000/svg">
<path d="M28.92 28.68V29H19.12V28.68L22.4 28.28L18.64 18.04H8.96L5.64 26.88C5.53333 27.1733 5.48 27.4133 5.48 27.6C5.48 27.8933 5.56 28.1067 5.72 28.24C5.90667 28.3467 6.22667 28.4267 6.68 28.48L9.12 28.68V29H0.6V28.68L2.84 28.48C3.50667 28.4267 3.97333 28.2933 4.24 28.08C4.53333 27.8667 4.78667 27.4667 5 26.88L14.8 0.759999H15.52L25.6 28.28L28.92 28.68ZM18.4 17.4L13.92 5.2H13.76L9.2 17.4H18.4ZM58.3281 28.68V29H52.3681L41.5281 14.68L39.2881 17.24V28.36L42.7681 28.68V29H32.9281V28.68L36.2081 28.36V2.04L32.9281 1.72V1.4H42.7681V1.72L39.2881 2.04V16.52L50.1681 3.96C50.5948 3.45333 50.8081 3.04 50.8081 2.72C50.8081 2.45333 50.5948 2.25333 50.1681 2.12C49.7681 1.98666 48.9415 1.85333 47.6881 1.72V1.4H55.8481V1.72C54.3015 1.98666 53.2481 2.24 52.6881 2.48C52.1548 2.72 51.5815 3.18667 50.9681 3.88L43.6481 12.28L55.2081 27.4C55.6615 27.9067 56.0748 28.2533 56.4481 28.44C56.8481 28.6 57.4215 28.68 58.1681 28.68H58.3281ZM76.0581 28.6C74.7515 29.2933 73.2715 29.64 71.6181 29.64C70.3648 29.64 69.1515 29.44 67.9781 29.04C66.8048 28.6667 65.8048 28.1333 64.9781 27.44L64.1381 29.64H63.6181L63.0981 20.08L63.4581 20C63.8581 21.8133 64.2581 23.2267 64.6581 24.24C65.0848 25.2533 65.6315 26.1333 66.2981 26.88C67.6581 28.4 69.4581 29.16 71.6981 29.16C73.6181 29.16 75.1115 28.6667 76.1781 27.68C77.2715 26.6667 77.8181 25.3067 77.8181 23.6C77.8181 22.4 77.5248 21.3867 76.9381 20.56C76.3781 19.7333 75.6048 19.0267 74.6181 18.44C73.6315 17.8533 72.2448 17.1733 70.4581 16.4C68.9915 15.76 67.7648 15.1333 66.7781 14.52C65.7915 13.88 64.9648 13.0667 64.2981 12.08C63.6581 11.0667 63.3381 9.84 63.3381 8.4C63.3381 6.93333 63.6848 5.62666 64.3781 4.48C65.0981 3.30667 66.0715 2.4 67.2981 1.76C68.5515 1.09333 69.9648 0.759999 71.5381 0.759999C72.6315 0.759999 73.6448 0.946665 74.5781 1.32C75.5381 1.69333 76.5648 2.30667 77.6581 3.16L78.6181 1.24H79.1381L79.5381 9.96L79.1381 10.08C78.7115 8.29333 78.1648 6.72 77.4981 5.36C76.1648 2.61333 74.1248 1.24 71.3781 1.24C69.7248 1.24 68.4048 1.72 67.4181 2.68C66.4315 3.61333 65.9381 4.89333 65.9381 6.52C65.9381 7.69333 66.2048 8.68 66.7381 9.48C67.2981 10.28 68.0581 10.9733 69.0181 11.56C70.0048 12.1467 71.3915 12.8533 73.1781 13.68C74.7781 14.4 76.0581 15.08 77.0181 15.72C78.0048 16.36 78.7915 17.16 79.3781 18.12C79.9915 19.0533 80.2981 20.2133 80.2981 21.6C80.2981 23.1467 79.9248 24.5333 79.1781 25.76C78.4315 26.96 77.3915 27.9067 76.0581 28.6ZM111.67 28.68V29H101.87V28.68L105.15 28.28L101.39 18.04H91.71L88.39 26.88C88.2833 27.1733 88.23 27.4133 88.23 27.6C88.23 27.8933 88.31 28.1067 88.47 28.24C88.6567 28.3467 88.9767 28.4267 89.43 28.48L91.87 28.68V29H83.35V28.68L85.59 28.48C86.2567 28.4267 86.7233 28.2933 86.99 28.08C87.2833 27.8667 87.5367 27.4667 87.75 26.88L97.55 0.759999H98.27L108.35 28.28L111.67 28.68ZM101.15 17.4L96.67 5.2H96.51L91.95 17.4H101.15Z" fill="#4D78FD"/>
</svg>
