<svg width="109" height="33" viewBox="0 0 109 33" fill="none" xmlns="http://www.w3.org/2000/svg">
<path d="M4.24 29.36V3.16C4.24 2.62666 4.12 2.26666 3.88 2.08C3.66667 1.86667 3.30667 1.76 2.8 1.76H1.44C1.09333 1.76 0.92 1.58666 0.92 1.24C0.92 0.893331 1.09333 0.693331 1.44 0.639998L6.64 -4.76837e-07C7.12 -4.76837e-07 7.36 0.306666 7.36 0.92V20.16C7.36 20.4 7.45333 20.52 7.64 20.52H9.32C9.53333 20.52 9.72 20.44 9.88 20.28L15.52 14.36C15.76 14.0667 15.88 13.84 15.88 13.68C15.88 13.4933 15.7733 13.2533 15.56 12.96C15.3733 12.6667 15.28 12.4533 15.28 12.32C15.28 12.0267 15.4667 11.88 15.84 11.88L18.36 12L21.32 11.84C21.72 11.84 21.92 12 21.92 12.32C21.92 12.64 21.76 12.8267 21.44 12.88L20.88 12.96C19.9733 13.0933 19.1733 13.52 18.48 14.24L12.28 20.52C12.1733 20.6267 12.12 20.7333 12.12 20.84C12.12 20.92 12.1733 21.0133 12.28 21.12L19.44 29.36C20.3467 30.4 21.0533 30.9467 21.56 31L22.28 31.08C22.6 31.1333 22.76 31.3067 22.76 31.6C22.76 31.9733 22.5733 32.16 22.2 32.16C20.2 32.0533 18.96 32 18.48 32L16.04 32.12C15.64 32.12 15.44 31.9733 15.44 31.68C15.44 31.4933 15.5067 31.28 15.64 31.04C15.8 30.7733 15.88 30.56 15.88 30.4C15.88 30.24 15.76 30.0267 15.52 29.76L9.56 22.52C9.4 22.36 9.22667 22.28 9.04 22.28H7.72C7.48 22.28 7.36 22.4 7.36 22.64V29.36C7.36 30.32 7.89333 30.8667 8.96 31L9.64 31.08C9.96 31.1067 10.12 31.2933 10.12 31.64C10.12 31.9867 9.92 32.16 9.52 32.16L5.72 32L1.4 32.16C1 32.16 0.8 31.9867 0.8 31.64C0.8 31.2933 0.96 31.1067 1.28 31.08L2.4 31C2.93333 30.9467 3.37333 30.7867 3.72 30.52C4.06667 30.2267 4.24 29.84 4.24 29.36ZM45.6181 31.8C45.6181 32.2267 45.1381 32.44 44.1781 32.44C42.5248 32.44 41.1248 31.7867 39.9781 30.48C39.7915 30.2933 39.6448 30.2 39.5381 30.2C39.4581 30.2 39.3248 30.28 39.1381 30.44C37.4048 31.7733 35.4581 32.44 33.2981 32.44C31.7781 32.44 30.4448 31.9733 29.2981 31.04C28.1515 30.08 27.5781 28.8533 27.5781 27.36C27.5781 25.4667 28.4048 24.0267 30.0581 23.04C31.5248 22.1867 33.8181 21.52 36.9381 21.04C37.6848 20.9067 38.1915 20.8133 38.4581 20.76C38.8048 20.7333 38.9781 20.5467 38.9781 20.2V16.52C38.9781 15.4267 38.6048 14.56 37.8581 13.92C37.1381 13.28 36.1648 12.96 34.9381 12.96C33.7381 12.96 32.6448 13.3333 31.6581 14.08C30.6981 14.8267 30.0848 15.8667 29.8181 17.2C29.7381 17.6 29.5115 17.8 29.1381 17.8C28.7915 17.8 28.6181 17.6 28.6181 17.2V14.2C28.6181 13.7467 28.7648 13.4133 29.0581 13.2C30.4715 12.1067 32.4981 11.56 35.1381 11.56C37.7781 11.56 39.6315 12.1333 40.6981 13.28C41.7648 14.4267 42.2981 15.9067 42.2981 17.72V28.4C42.2981 29.2533 42.5648 29.9467 43.0981 30.48C43.6581 31.0133 44.3115 31.28 45.0581 31.28C45.4315 31.28 45.6181 31.4533 45.6181 31.8ZM38.8981 28.08V23.08C38.8981 22.68 38.7248 22.48 38.3781 22.48C38.3515 22.48 38.3115 22.48 38.2581 22.48C33.4848 23.0667 31.0981 24.5333 31.0981 26.88C31.0981 27.9733 31.4581 28.84 32.1781 29.48C32.8981 30.0933 33.6981 30.4 34.5781 30.4C35.4848 30.4 36.2715 30.2267 36.9381 29.88C37.6315 29.5333 38.1248 29.1867 38.4181 28.84C38.7381 28.4933 38.8981 28.24 38.8981 28.08ZM55.7278 11.56C56.1545 11.56 56.3678 11.8667 56.3678 12.48V14.24C56.3678 14.3733 56.4078 14.44 56.4878 14.44C56.5945 14.44 56.7278 14.36 56.8878 14.2C58.5145 12.44 60.2878 11.56 62.2078 11.56C63.6478 11.56 64.8211 11.8267 65.7278 12.36C66.6611 12.8667 67.4078 13.72 67.9678 14.92C68.0478 15.08 68.1278 15.16 68.2078 15.16C68.2878 15.16 68.3811 15.0667 68.4878 14.88C70.1145 12.6667 72.1545 11.56 74.6078 11.56C76.6611 11.56 78.2611 12.2 79.4078 13.48C80.5545 14.76 81.1278 16.6133 81.1278 19.04V29.36C81.1278 29.84 81.3145 30.2267 81.6878 30.52C82.0878 30.7867 82.5545 30.9467 83.0878 31L84.1678 31.08C84.4878 31.1067 84.6478 31.2933 84.6478 31.64C84.6478 31.9867 84.4478 32.16 84.0478 32.16L79.7678 32L76.1278 32.16C75.7278 32.16 75.5278 31.9867 75.5278 31.64C75.5278 31.2933 75.6878 31.1067 76.0078 31.08L76.5278 31C77.5145 30.84 78.0078 30.2933 78.0078 29.36V18.48C78.0078 15.1467 76.5811 13.48 73.7278 13.48C72.3945 13.48 71.2345 14.1333 70.2478 15.44C69.2611 16.72 68.7678 18.04 68.7678 19.4V29.28C68.7678 30.32 69.2345 30.8933 70.1678 31L70.8478 31.08C71.1411 31.1067 71.2878 31.2933 71.2878 31.64C71.2878 31.9867 71.1145 32.16 70.7678 32.16L67.2478 32L63.7278 32.16C63.3278 32.16 63.1278 32 63.1278 31.68C63.1278 31.3333 63.2878 31.1333 63.6078 31.08L64.2078 31C65.1678 30.8667 65.6478 30.32 65.6478 29.36V18.48C65.6478 15.1467 64.2345 13.48 61.4078 13.48C60.1278 13.48 58.9678 14.1067 57.9278 15.36C56.8878 16.6133 56.3678 17.96 56.3678 19.4V29.36C56.3678 30.32 56.9011 30.8667 57.9678 31L58.6478 31.08C58.9678 31.1067 59.1278 31.2933 59.1278 31.64C59.1278 31.9867 58.9278 32.16 58.5278 32.16L54.7278 32L50.4078 32.16C50.0078 32.16 49.8078 31.9867 49.8078 31.64C49.8078 31.2933 49.9678 31.1067 50.2878 31.08L51.4078 31C51.9411 30.9467 52.3811 30.7867 52.7278 30.52C53.0745 30.2267 53.2478 29.84 53.2478 29.36V14.72C53.2478 14.1867 53.1278 13.8267 52.8878 13.64C52.6745 13.4267 52.3145 13.32 51.8078 13.32H50.4478C50.1011 13.32 49.9278 13.1467 49.9278 12.8C49.9278 12.4533 50.1011 12.2533 50.4478 12.2L55.6478 11.56C55.6745 11.56 55.7011 11.56 55.7278 11.56ZM108.103 31.8C108.103 32.2267 107.623 32.44 106.663 32.44C105.009 32.44 103.609 31.7867 102.463 30.48C102.276 30.2933 102.129 30.2 102.023 30.2C101.943 30.2 101.809 30.28 101.623 30.44C99.8892 31.7733 97.9425 32.44 95.7825 32.44C94.2625 32.44 92.9292 31.9733 91.7825 31.04C90.6358 30.08 90.0625 28.8533 90.0625 27.36C90.0625 25.4667 90.8892 24.0267 92.5425 23.04C94.0092 22.1867 96.3025 21.52 99.4225 21.04C100.169 20.9067 100.676 20.8133 100.943 20.76C101.289 20.7333 101.463 20.5467 101.463 20.2V16.52C101.463 15.4267 101.089 14.56 100.343 13.92C99.6225 13.28 98.6492 12.96 97.4225 12.96C96.2225 12.96 95.1292 13.3333 94.1425 14.08C93.1825 14.8267 92.5692 15.8667 92.3025 17.2C92.2225 17.6 91.9958 17.8 91.6225 17.8C91.2758 17.8 91.1025 17.6 91.1025 17.2V14.2C91.1025 13.7467 91.2492 13.4133 91.5425 13.2C92.9558 12.1067 94.9825 11.56 97.6225 11.56C100.263 11.56 102.116 12.1333 103.183 13.28C104.249 14.4267 104.783 15.9067 104.783 17.72V28.4C104.783 29.2533 105.049 29.9467 105.583 30.48C106.143 31.0133 106.796 31.28 107.543 31.28C107.916 31.28 108.103 31.4533 108.103 31.8ZM101.383 28.08V23.08C101.383 22.68 101.209 22.48 100.863 22.48C100.836 22.48 100.796 22.48 100.743 22.48C95.9692 23.0667 93.5825 24.5333 93.5825 26.88C93.5825 27.9733 93.9425 28.84 94.6625 29.48C95.3825 30.0933 96.1825 30.4 97.0625 30.4C97.9692 30.4 98.7558 30.2267 99.4225 29.88C100.116 29.5333 100.609 29.1867 100.903 28.84C101.223 28.4933 101.383 28.24 101.383 28.08Z" fill="#4D78FD"/>
</svg>
