<svg width="154" height="38" viewBox="0 0 154 38" fill="none" xmlns="http://www.w3.org/2000/svg">
<path d="M14.24 19.72C14.24 21.3467 14.04 22.8133 13.64 24.12C13.24 25.4267 12.64 26.54 11.84 27.46C11.0533 28.38 10.0667 29.0867 8.88 29.58C7.69333 30.0733 6.31333 30.32 4.74 30.32C4.02 30.32 3.31333 30.2733 2.62 30.18C1.92667 30.1 1.2 29.9667 0.44 29.78C0.48 29.2467 0.526667 28.7133 0.58 28.18C0.633333 27.6467 0.68 27.1133 0.72 26.58C0.76 26.2867 0.873333 26.0533 1.06 25.88C1.26 25.6933 1.54 25.6 1.9 25.6C2.12667 25.6 2.42 25.6467 2.78 25.74C3.15333 25.8333 3.62 25.88 4.18 25.88C4.94 25.88 5.61333 25.7733 6.2 25.56C6.78667 25.3333 7.27333 24.98 7.66 24.5C8.06 24.02 8.36 23.4 8.56 22.64C8.76 21.8667 8.86 20.9333 8.86 19.84V1.08H14.24V19.72ZM29.7644 21.24C28.3377 21.3067 27.1377 21.4333 26.1644 21.62C25.191 21.7933 24.411 22.02 23.8244 22.3C23.2377 22.58 22.8177 22.9067 22.5644 23.28C22.311 23.6533 22.1844 24.06 22.1844 24.5C22.1844 25.3667 22.4377 25.9867 22.9444 26.36C23.4644 26.7333 24.1377 26.92 24.9644 26.92C25.9777 26.92 26.851 26.74 27.5844 26.38C28.331 26.0067 29.0577 25.4467 29.7644 24.7V21.24ZM18.4444 12.34C20.8044 10.18 23.6444 9.1 26.9644 9.1C28.1644 9.1 29.2377 9.3 30.1844 9.7C31.131 10.0867 31.931 10.6333 32.5844 11.34C33.2377 12.0333 33.731 12.8667 34.0644 13.84C34.411 14.8133 34.5844 15.88 34.5844 17.04V30H32.3444C31.8777 30 31.5177 29.9333 31.2644 29.8C31.011 29.6533 30.811 29.3667 30.6644 28.94L30.2244 27.46C29.7044 27.9267 29.1977 28.34 28.7044 28.7C28.211 29.0467 27.6977 29.34 27.1644 29.58C26.631 29.82 26.0577 30 25.4444 30.12C24.8444 30.2533 24.1777 30.32 23.4444 30.32C22.5777 30.32 21.7777 30.2067 21.0444 29.98C20.311 29.74 19.6777 29.3867 19.1444 28.92C18.611 28.4533 18.1977 27.8733 17.9044 27.18C17.611 26.4867 17.4644 25.68 17.4644 24.76C17.4644 24.24 17.551 23.7267 17.7244 23.22C17.8977 22.7 18.1777 22.2067 18.5644 21.74C18.9644 21.2733 19.4777 20.8333 20.1044 20.42C20.731 20.0067 21.4977 19.6467 22.4044 19.34C23.3244 19.0333 24.391 18.7867 25.6044 18.6C26.8177 18.4 28.2044 18.28 29.7644 18.24V17.04C29.7644 15.6667 29.471 14.6533 28.8844 14C28.2977 13.3333 27.451 13 26.3444 13C25.5444 13 24.8777 13.0933 24.3444 13.28C23.8244 13.4667 23.3644 13.68 22.9644 13.92C22.5644 14.1467 22.1977 14.3533 21.8644 14.54C21.5444 14.7267 21.1844 14.82 20.7844 14.82C20.4377 14.82 20.1444 14.7333 19.9044 14.56C19.6644 14.3733 19.471 14.16 19.3244 13.92L18.4444 12.34ZM44.3569 9.48V30.7C44.3569 31.5933 44.2369 32.4333 43.9969 33.22C43.7702 34.0067 43.3969 34.6933 42.8769 35.28C42.3702 35.88 41.6969 36.3467 40.8569 36.68C40.0302 37.0267 39.0169 37.2 37.8169 37.2C37.3502 37.2 36.9169 37.1667 36.5169 37.1C36.1169 37.0467 35.7035 36.9533 35.2769 36.82L35.4569 34.16C35.4969 33.8933 35.6035 33.72 35.7769 33.64C35.9502 33.5733 36.2835 33.54 36.7769 33.54C37.2702 33.54 37.6835 33.4867 38.0169 33.38C38.3635 33.2867 38.6369 33.1267 38.8369 32.9C39.0369 32.6867 39.1769 32.4 39.2569 32.04C39.3502 31.68 39.3969 31.2333 39.3969 30.7V9.48H44.3569ZM45.0369 3.5C45.0369 3.92666 44.9502 4.32666 44.7769 4.7C44.6035 5.07333 44.3702 5.4 44.0769 5.68C43.7969 5.96 43.4569 6.18667 43.0569 6.36C42.6702 6.52 42.2569 6.6 41.8169 6.6C41.3902 6.6 40.9902 6.52 40.6169 6.36C40.2435 6.18667 39.9169 5.96 39.6369 5.68C39.3569 5.4 39.1302 5.07333 38.9569 4.7C38.7969 4.32666 38.7169 3.92666 38.7169 3.5C38.7169 3.06 38.7969 2.64667 38.9569 2.26C39.1302 1.87333 39.3569 1.54 39.6369 1.26C39.9169 0.979999 40.2435 0.759999 40.6169 0.599999C40.9902 0.426666 41.3902 0.339999 41.8169 0.339999C42.2569 0.339999 42.6702 0.426666 43.0569 0.599999C43.4569 0.759999 43.7969 0.979999 44.0769 1.26C44.3702 1.54 44.6035 1.87333 44.7769 2.26C44.9502 2.64667 45.0369 3.06 45.0369 3.5ZM60.2331 21.24C58.8065 21.3067 57.6065 21.4333 56.6331 21.62C55.6598 21.7933 54.8798 22.02 54.2931 22.3C53.7065 22.58 53.2865 22.9067 53.0331 23.28C52.7798 23.6533 52.6531 24.06 52.6531 24.5C52.6531 25.3667 52.9065 25.9867 53.4131 26.36C53.9331 26.7333 54.6065 26.92 55.4331 26.92C56.4465 26.92 57.3198 26.74 58.0531 26.38C58.7998 26.0067 59.5265 25.4467 60.2331 24.7V21.24ZM48.9131 12.34C51.2731 10.18 54.1131 9.1 57.4331 9.1C58.6331 9.1 59.7065 9.3 60.6531 9.7C61.5998 10.0867 62.3998 10.6333 63.0531 11.34C63.7065 12.0333 64.1998 12.8667 64.5331 13.84C64.8798 14.8133 65.0531 15.88 65.0531 17.04V30H62.8131C62.3465 30 61.9865 29.9333 61.7331 29.8C61.4798 29.6533 61.2798 29.3667 61.1331 28.94L60.6931 27.46C60.1731 27.9267 59.6665 28.34 59.1731 28.7C58.6798 29.0467 58.1665 29.34 57.6331 29.58C57.0998 29.82 56.5265 30 55.9131 30.12C55.3131 30.2533 54.6465 30.32 53.9131 30.32C53.0465 30.32 52.2465 30.2067 51.5131 29.98C50.7798 29.74 50.1465 29.3867 49.6131 28.92C49.0798 28.4533 48.6665 27.8733 48.3731 27.18C48.0798 26.4867 47.9331 25.68 47.9331 24.76C47.9331 24.24 48.0198 23.7267 48.1931 23.22C48.3665 22.7 48.6465 22.2067 49.0331 21.74C49.4331 21.2733 49.9465 20.8333 50.5731 20.42C51.1998 20.0067 51.9665 19.6467 52.8731 19.34C53.7931 19.0333 54.8598 18.7867 56.0731 18.6C57.2865 18.4 58.6731 18.28 60.2331 18.24V17.04C60.2331 15.6667 59.9398 14.6533 59.3531 14C58.7665 13.3333 57.9198 13 56.8131 13C56.0131 13 55.3465 13.0933 54.8131 13.28C54.2931 13.4667 53.8331 13.68 53.4331 13.92C53.0331 14.1467 52.6665 14.3533 52.3331 14.54C52.0131 14.7267 51.6531 14.82 51.2531 14.82C50.9065 14.82 50.6131 14.7333 50.3731 14.56C50.1331 14.3733 49.9398 14.16 49.7931 13.92L48.9131 12.34ZM74.3256 12C74.739 11.5867 75.1723 11.2067 75.6256 10.86C76.0923 10.5 76.579 10.2 77.0856 9.96C77.6056 9.70667 78.159 9.51333 78.7456 9.38C79.3323 9.23333 79.9723 9.16 80.6656 9.16C81.7856 9.16 82.779 9.35333 83.6456 9.74C84.5123 10.1133 85.2323 10.6467 85.8056 11.34C86.3923 12.02 86.8323 12.84 87.1256 13.8C87.4323 14.7467 87.5856 15.7933 87.5856 16.94V30H82.6456V16.94C82.6456 15.6867 82.359 14.72 81.7856 14.04C81.2123 13.3467 80.339 13 79.1656 13C78.3123 13 77.5123 13.1933 76.7656 13.58C76.019 13.9667 75.3123 14.4933 74.6456 15.16V30H69.7056V9.48H72.7256C73.3656 9.48 73.7856 9.78 73.9856 10.38L74.3256 12ZM92.2838 30V9.48H95.3038C95.9438 9.48 96.3638 9.78 96.5638 10.38L96.8838 11.9C97.2438 11.5 97.6171 11.1333 98.0038 10.8C98.4038 10.4667 98.8238 10.18 99.2638 9.94C99.7171 9.7 100.197 9.51333 100.704 9.38C101.224 9.23333 101.79 9.16 102.404 9.16C103.697 9.16 104.757 9.51333 105.584 10.22C106.424 10.9133 107.05 11.84 107.464 13C107.784 12.32 108.184 11.74 108.664 11.26C109.144 10.7667 109.67 10.3667 110.244 10.06C110.817 9.75333 111.424 9.52667 112.064 9.38C112.717 9.23333 113.37 9.16 114.024 9.16C115.157 9.16 116.164 9.33333 117.044 9.68C117.924 10.0267 118.664 10.5333 119.264 11.2C119.864 11.8667 120.317 12.68 120.624 13.64C120.944 14.6 121.104 15.7 121.104 16.94V30H116.164V16.94C116.164 15.6333 115.877 14.6533 115.304 14C114.73 13.3333 113.89 13 112.784 13C112.277 13 111.804 13.0867 111.364 13.26C110.937 13.4333 110.557 13.6867 110.224 14.02C109.904 14.34 109.65 14.7467 109.464 15.24C109.277 15.7333 109.184 16.3 109.184 16.94V30H104.224V16.94C104.224 15.5667 103.944 14.5667 103.384 13.94C102.837 13.3133 102.03 13 100.964 13C100.244 13 99.5704 13.18 98.9438 13.54C98.3304 13.8867 97.7571 14.3667 97.2238 14.98V30H92.2838ZM130.919 9.48V30H125.959V9.48H130.919ZM131.599 3.5C131.599 3.92666 131.513 4.32666 131.339 4.7C131.166 5.07333 130.933 5.4 130.639 5.68C130.359 5.96 130.026 6.18667 129.639 6.36C129.253 6.52 128.839 6.6 128.399 6.6C127.973 6.6 127.566 6.52 127.179 6.36C126.806 6.18667 126.479 5.96 126.199 5.68C125.919 5.4 125.693 5.07333 125.519 4.7C125.359 4.32666 125.279 3.92666 125.279 3.5C125.279 3.06 125.359 2.64667 125.519 2.26C125.693 1.87333 125.919 1.54 126.199 1.26C126.479 0.979999 126.806 0.759999 127.179 0.599999C127.566 0.426666 127.973 0.339999 128.399 0.339999C128.839 0.339999 129.253 0.426666 129.639 0.599999C130.026 0.759999 130.359 0.979999 130.639 1.26C130.933 1.54 131.166 1.87333 131.339 2.26C131.513 2.64667 131.599 3.06 131.599 3.5ZM149.176 17.38C149.176 16.74 149.082 16.14 148.896 15.58C148.722 15.0067 148.456 14.5067 148.096 14.08C147.736 13.6533 147.276 13.32 146.716 13.08C146.169 12.8267 145.529 12.7 144.796 12.7C143.369 12.7 142.242 13.1067 141.416 13.92C140.602 14.7333 140.082 15.8867 139.856 17.38H149.176ZM139.756 20.36C139.836 21.4133 140.022 22.3267 140.316 23.1C140.609 23.86 140.996 24.4933 141.476 25C141.956 25.4933 142.522 25.8667 143.176 26.12C143.842 26.36 144.576 26.48 145.376 26.48C146.176 26.48 146.862 26.3867 147.436 26.2C148.022 26.0133 148.529 25.8067 148.956 25.58C149.396 25.3533 149.776 25.1467 150.096 24.96C150.429 24.7733 150.749 24.68 151.056 24.68C151.469 24.68 151.776 24.8333 151.976 25.14L153.396 26.94C152.849 27.58 152.236 28.12 151.556 28.56C150.876 28.9867 150.162 29.3333 149.416 29.6C148.682 29.8533 147.929 30.0333 147.156 30.14C146.396 30.2467 145.656 30.3 144.936 30.3C143.509 30.3 142.182 30.0667 140.956 29.6C139.729 29.12 138.662 28.42 137.756 27.5C136.849 26.5667 136.136 25.42 135.616 24.06C135.096 22.6867 134.836 21.1 134.836 19.3C134.836 17.9 135.062 16.5867 135.516 15.36C135.969 14.12 136.616 13.0467 137.456 12.14C138.309 11.22 139.342 10.4933 140.556 9.96C141.782 9.42667 143.162 9.16 144.696 9.16C145.989 9.16 147.182 9.36667 148.276 9.78C149.369 10.1933 150.309 10.8 151.096 11.6C151.882 12.3867 152.496 13.36 152.936 14.52C153.389 15.6667 153.616 16.98 153.616 18.46C153.616 19.2067 153.536 19.7133 153.376 19.98C153.216 20.2333 152.909 20.36 152.456 20.36H139.756Z" fill="#4D78FD"/>
</svg>
