<svg width="97" height="34" viewBox="0 0 97 34" fill="none" xmlns="http://www.w3.org/2000/svg">
<path d="M10.52 24.56C8.57333 24.56 6.86667 24.1467 5.4 23.32C3.96 22.4667 2.84 21.28 2.04 19.76C1.26667 18.2133 0.88 16.3867 0.88 14.28C0.88 11.96 1.29333 9.97333 2.12 8.32C2.94667 6.64 4.12 5.34667 5.64 4.44C7.18667 3.53333 9 3.08 11.08 3.08C13 3.08 14.6533 3.49333 16.04 4.32C17.4533 5.14667 18.5467 6.32 19.32 7.84C20.0933 9.36 20.48 11.1733 20.48 13.28C20.48 15.5733 20.0667 17.5733 19.24 19.28C18.4133 20.96 17.2533 22.2667 15.76 23.2C14.2933 24.1067 12.5467 24.56 10.52 24.56ZM11.12 22.8C12.2667 22.8 13.2267 22.4933 14 21.88C14.8 21.2667 15.4 20.32 15.8 19.04C16.2 17.76 16.4 16.16 16.4 14.24C16.4 12.6933 16.2533 11.3333 15.96 10.16C15.6933 8.96 15.2933 7.96 14.76 7.16C14.2533 6.36 13.6267 5.76 12.88 5.36C12.16 4.96 11.3333 4.76 10.4 4.76C9.22667 4.76 8.22667 5.06667 7.4 5.68C6.6 6.26667 5.98667 7.17333 5.56 8.4C5.13333 9.6 4.92 11.16 4.92 13.08C4.92 15.2133 5.17333 17 5.68 18.44C6.18667 19.88 6.90667 20.9733 7.84 21.72C8.77333 22.44 9.86667 22.8 11.12 22.8ZM35.5213 33.2C34.0013 33.2 32.6679 33.0933 31.5213 32.88C30.3746 32.6667 29.4146 32.3467 28.6413 31.92C27.8946 31.52 27.3213 31.0133 26.9213 30.4C26.5479 29.7867 26.3613 29.0667 26.3613 28.24C26.3613 27.5733 26.4946 26.96 26.7613 26.4C27.0279 25.84 27.4546 25.3333 28.0413 24.88C28.6279 24.4533 29.3613 24.0933 30.2413 23.8V23.64C29.4413 23.4267 28.8146 23.0267 28.3613 22.44C27.9079 21.8533 27.6813 21.2 27.6813 20.48C27.6813 19.76 27.8546 19.08 28.2013 18.44C28.5746 17.8 29.2679 16.9467 30.2812 15.88V15.76C29.2946 15.2533 28.5479 14.5467 28.0413 13.64C27.5613 12.7067 27.3213 11.5733 27.3213 10.24C27.3213 8.77333 27.6546 7.50667 28.3213 6.44C29.0146 5.37333 29.9879 4.54667 31.2413 3.96C32.4946 3.37333 33.9479 3.08 35.6013 3.08C36.2679 3.08 36.9079 3.13333 37.5213 3.24C38.1613 3.34666 38.7746 3.50667 39.3613 3.72C39.9746 3.93333 40.5079 4.2 40.9613 4.52C41.4146 3.29333 41.9613 2.34666 42.6013 1.68C43.2679 0.986665 44.0546 0.639998 44.9613 0.639998C45.4946 0.639998 45.9613 0.733332 46.3613 0.919999C46.7613 1.10666 47.0679 1.36 47.2813 1.68C47.5213 1.97333 47.6413 2.33333 47.6413 2.76C47.6413 3.34667 47.4146 3.86667 46.9613 4.32C46.5079 4.77333 45.9746 5 45.3613 5C45.0146 5 44.7079 4.90667 44.4413 4.72C44.1746 4.53333 43.9479 4.26667 43.7613 3.92L43.2013 2.88C42.9613 3.25333 42.7479 3.64 42.5613 4.04C42.4013 4.41333 42.2279 4.86667 42.0413 5.4C42.5479 5.98667 42.9479 6.69333 43.2413 7.52C43.5613 8.32 43.7213 9.16 43.7213 10.04C43.7213 11.4533 43.3879 12.6933 42.7213 13.76C42.0546 14.8 41.1213 15.6133 39.9213 16.2C38.7213 16.76 37.2946 17.04 35.6413 17.04C34.8946 17.04 34.1746 16.9867 33.4813 16.88C32.8146 16.7733 32.2546 16.6267 31.8013 16.44C31.3213 17 30.9746 17.4533 30.7613 17.8C30.5746 18.1467 30.4813 18.5067 30.4813 18.88C30.4813 19.3067 30.5879 19.6667 30.8013 19.96C31.0413 20.2267 31.3879 20.4267 31.8413 20.56C32.2946 20.6933 32.8813 20.76 33.6013 20.76H38.8813C41.3346 20.76 43.1479 21.16 44.3213 21.96C45.5213 22.76 46.1213 24.0533 46.1213 25.84C46.1213 26.7733 45.9613 27.6133 45.6413 28.36C45.3479 29.1333 44.9079 29.8133 44.3213 30.4C43.7346 31.0133 43.0146 31.52 42.1613 31.92C41.3079 32.3467 40.3213 32.6667 39.2013 32.88C38.0813 33.0933 36.8546 33.2 35.5213 33.2ZM35.8412 31.4C37.2013 31.4 38.3879 31.2133 39.4013 30.84C40.4146 30.4933 41.1879 29.9867 41.7213 29.32C42.2813 28.68 42.5613 27.9333 42.5613 27.08C42.5613 26.0933 42.2279 25.36 41.5613 24.88C40.8946 24.4267 39.9079 24.2 38.6013 24.2H31.6813C31.0946 24.6267 30.6413 25.1333 30.3213 25.72C30.0013 26.3333 29.8413 26.9733 29.8413 27.64C29.8413 28.9467 30.3213 29.8933 31.2813 30.48C32.2413 31.0933 33.7613 31.4 35.8412 31.4ZM35.5612 15.48C36.9746 15.48 38.0546 15.0133 38.8013 14.08C39.5479 13.1467 39.9213 11.84 39.9213 10.16C39.9213 8.37333 39.5213 7 38.7213 6.04C37.9213 5.05333 36.7879 4.56 35.3213 4.56C33.9346 4.56 32.8813 5.02667 32.1613 5.96C31.4679 6.89333 31.1213 8.25333 31.1213 10.04C31.1213 11.6933 31.5213 13.0133 32.3213 14C33.1213 14.9867 34.2013 15.48 35.5612 15.48ZM55.1003 33.2C53.8736 33.2 52.9003 32.9067 52.1803 32.32C51.487 31.76 51.1403 31.0133 51.1403 30.08C51.1403 29.36 51.367 28.7467 51.8203 28.24C52.2736 27.76 52.8736 27.52 53.6203 27.52C54.2336 27.52 54.727 27.6667 55.1003 27.96C55.5003 28.2533 55.7136 28.64 55.7403 29.12C55.767 29.3333 55.7536 29.6267 55.7003 30C55.647 30.3733 55.5536 30.8933 55.4203 31.56C56.007 31.5867 56.5536 31.4667 57.0603 31.2C57.5936 30.96 58.127 30.4533 58.6603 29.68C59.1936 28.9067 59.7803 27.7467 60.4203 26.2L61.2603 24.2L54.1803 7.36C53.8603 6.53333 53.5936 6.01333 53.3803 5.8C53.1936 5.56 52.9003 5.38667 52.5003 5.28L51.1403 4.96L51.4203 3.64H60.9003V4.88L58.9803 5.12C58.4736 5.17333 58.1403 5.34667 57.9803 5.64C57.847 5.90667 57.927 6.4 58.2203 7.12L63.1003 19.44H63.2603L68.0203 7.36C68.3136 6.69333 68.3803 6.2 68.2203 5.88C68.0603 5.56 67.6736 5.33333 67.0603 5.2L65.4603 4.88L65.7003 3.64H73.2603V4.92L71.8603 5.2C71.4336 5.30667 71.1003 5.48 70.8603 5.72C70.6203 5.96 70.327 6.49333 69.9803 7.32L62.4603 25.92C61.9003 27.3867 61.3403 28.5867 60.7803 29.52C60.2203 30.4533 59.647 31.1867 59.0603 31.72C58.5003 32.2533 57.887 32.6267 57.2203 32.84C56.5803 33.08 55.8736 33.2 55.1003 33.2ZM83.2591 24.56C81.5524 24.56 80.1924 24.08 79.1791 23.12C78.1657 22.1333 77.6591 20.8133 77.6591 19.16C77.6591 17.7467 78.0191 16.6 78.7391 15.72C79.4591 14.8133 80.6457 14.1333 82.2991 13.68C83.9791 13.2 86.2324 12.8933 89.0591 12.76V9.16C89.0591 8.06667 88.9124 7.18667 88.6191 6.52C88.3257 5.82667 87.8724 5.32 87.2591 5C86.6457 4.68 85.8457 4.52 84.8591 4.52C84.0591 4.52 83.2724 4.64 82.4991 4.88C81.7257 5.12 81.1524 5.44 80.7791 5.84C81.1257 6.29333 81.3924 6.69333 81.5791 7.04C81.7924 7.38667 81.9391 7.68 82.0191 7.92C82.1257 8.13333 82.1791 8.33333 82.1791 8.52C82.1791 9 81.9791 9.41333 81.5791 9.76C81.1791 10.1067 80.6457 10.28 79.9791 10.28C79.2591 10.28 78.6991 10.1067 78.2991 9.76C77.9257 9.38667 77.7391 8.86667 77.7391 8.2C77.7391 7.29333 78.0857 6.45333 78.7791 5.68C79.4991 4.90667 80.4324 4.28 81.5791 3.8C82.7257 3.32 83.9791 3.08 85.3391 3.08C87.0191 3.08 88.4057 3.34667 89.4991 3.88C90.5924 4.38667 91.4057 5.17333 91.9391 6.24C92.4991 7.30667 92.7791 8.65333 92.7791 10.28V20.36C92.7791 21.0267 92.9391 21.5067 93.2591 21.8C93.5791 22.0933 94.0057 22.24 94.5391 22.24C94.8591 22.24 95.1657 22.2133 95.4591 22.16C95.7791 22.08 96.1257 21.9733 96.4991 21.84L96.8191 22.84C96.2857 23.4 95.6857 23.8267 95.0191 24.12C94.3524 24.4133 93.7124 24.56 93.0991 24.56C91.9257 24.56 91.0324 24.2533 90.4191 23.64C89.8057 23 89.4457 22.0667 89.3391 20.84C88.8324 21.72 88.2857 22.44 87.6991 23C87.1124 23.5333 86.4457 23.92 85.6991 24.16C84.9791 24.4267 84.1657 24.56 83.2591 24.56ZM84.8191 22.28C85.6457 22.28 86.3657 22.0933 86.9791 21.72C87.6191 21.3467 88.1257 20.84 88.4991 20.2C88.8724 19.5333 89.0591 18.7733 89.0591 17.92V14.24C87.3257 14.24 85.8991 14.4 84.7791 14.72C83.6591 15.0133 82.8324 15.4933 82.2991 16.16C81.7924 16.8 81.5391 17.6533 81.5391 18.72C81.5391 19.84 81.8324 20.72 82.4191 21.36C83.0057 21.9733 83.8057 22.28 84.8191 22.28Z" fill="#4D78FD"/>
</svg>
